                                                                        S      1
,,13HLED 5mm green,13HLED 5mm green,7Hunknown,7Hunknown,32,38,7,99,15,, G      1
1.,2,2HMM,1,0.08,15H20190313.002707,0.01,10000.,14Hmkochendoerfer,7HunknG      2
own,11,0,15H20190312.190357;                                            G      3
     124       1                                                00000000D      1
     124                       2       0                               0D      2
     124       3                                                00000000D      3
     124                       2       0                               0D      4
     408       5                                                00000001D      5
     408       0               1       0                               0D      6
     408       6                                       1        00000001D      7
     408       0               1       0                               0D      8
     408       7                                       3        00000001D      9
     408       0               1       0                               0D     10
     308       8                                                00010200D     11
     308       0               1       0                               0D     12
     308       9                                                00010200D     13
     308       0               1       0                               0D     14
     308      10                                                00010200D     15
     308       0               1       0                               0D     16
     186      11                                                00010000D     17
     186            -169       1       0                               0D     18
     186      12                                                00010000D     19
     186            -171       1       0                               0D     20
     186      13                                                00010000D     21
     186            -171       1       0                               0D     22
     514      14                                                00010000D     23
     514                       1       1                               0D     24
     514      15                                                00010000D     25
     514                       1       1                               0D     26
     514      16                                                00010000D     27
     514                       1       1                               0D     28
     510      17                                                00010000D     29
     510            -169       1       1                               0D     30
     510      18                                                00010000D     31
     510            -169       1       1                               0D     32
     510      19                                                00010000D     33
     510            -169       1       1                               0D     34
     510      20                                                00010000D     35
     510            -169       1       1                               0D     36
     510      21                                                00010000D     37
     510            -169       1       1                               0D     38
     510      22                                                00010000D     39
     510            -169       1       1                               0D     40
     510      23                                                00010000D     41
     510            -169       1       1                               0D     42
     510      24                                                00010000D     43
     510            -171       1       1                               0D     44
     510      25                                                00010000D     45
     510            -171       1       1                               0D     46
     510      26                                                00010000D     47
     510            -171       1       1                               0D     48
     510      27                                                00010000D     49
     510            -171       1       1                               0D     50
     510      28                                                00010000D     51
     510            -171       1       1                               0D     52
     510      29                                                00010000D     53
     510            -171       1       1                               0D     54
     508      30                                                00010000D     55
     508                       2       1                               0D     56
     508      32                                                00010000D     57
     508                       2       1                               0D     58
     508      34                                                00010000D     59
     508                       1       1                               0D     60
     508      35                                                00010000D     61
     508                       2       1                               0D     62
     508      37                                                00010000D     63
     508                       1       1                               0D     64
     508      38                                                00010000D     65
     508                       2       1                               0D     66
     508      40                                                00010000D     67
     508                       1       1                               0D     68
     508      41                                                00010000D     69
     508                       1       1                               0D     70
     508      42                                                00010000D     71
     508                       1       1                               0D     72
     508      43                                                00010000D     73
     508                       1       1                               0D     74
     508      44                                                00010000D     75
     508                       1       1                               0D     76
     508      45                                                00010000D     77
     508                       1       1                               0D     78
     508      46                                                00010000D     79
     508                       1       1                               0D     80
     126      47                                                00010000D     81
     126       0               7       0                               0D     82
     126      54                                                00010000D     83
     126       0               4       0                               0D     84
     126      58                                                00010000D     85
     126       0               5       0                               0D     86
     126      63                                                00010000D     87
     126       0               6       0                               0D     88
     126      69                                                00010000D     89
     126       0               7       0                               0D     90
     126      76                                                00010000D     91
     126       0               2       0                               0D     92
     126      78                                                00010000D     93
     126       0               8       0                               0D     94
     126      86                                                00010000D     95
     126       0               5       0                               0D     96
     126      91                                                00010000D     97
     126       0               4       0                               0D     98
     126      95                                                00010000D     99
     126       0               4       0                               0D    100
     126      99                                                00010000D    101
     126       0               2       0                               0D    102
     126     101                                                00010000D    103
     126       0               4       0                               0D    104
     126     105                                                00010000D    105
     126       0               2       0                               0D    106
     126     107                                                00010000D    107
     126       0              12       0                               0D    108
     126     119                                                00010000D    109
     126       0              12       0                               0D    110
     126     131                                                00010000D    111
     126       0              10       0                               0D    112
     126     141                                                00010000D    113
     126       0               2       0                               0D    114
     126     143                                                00010000D    115
     126       0              10       0                               0D    116
     126     153                                                00010000D    117
     126       0              10       0                               0D    118
     126     163                                                00010000D    119
     126       0              10       0                               0D    120
     126     173                                                00010000D    121
     126       0               3       0                               0D    122
     128     176                                                00010000D    123
     128       0    -169      19       0                               0D    124
     128     195                                                00010000D    125
     128       0    -169      11       0                               0D    126
     128     206                                                00010000D    127
     128       0    -169       8       0                               0D    128
     128     214                                                00010000D    129
     128       0    -169       7       0                               0D    130
     128     221                                                00010000D    131
     128       0    -169      18       0                               0D    132
     128     239                                                00010000D    133
     128       0    -169       5       0                               0D    134
     128     244                                                00010000D    135
     128       0    -169       5       0                               0D    136
     128     249                                                00010000D    137
     128       0    -171      12       0                               0D    138
     128     261                                                00010000D    139
     128       0    -171       3       0                               0D    140
     128     264                                                00010000D    141
     128       0    -171       3       0                               0D    142
     128     267                                                00010000D    143
     128       0    -171       3       0                               0D    144
     128     270                                                00010000D    145
     128       0    -171      13       0                               0D    146
     128     283                                                00010000D    147
     128       0    -171       3       0                               0D    148
     502     286                                                00010000D    149
     502                       5       1                               0D    150
     502     291                                                00010000D    151
     502                       2       1                               0D    152
     502     293                                                00010000D    153
     502                       2       1                               0D    154
     504     295                                                00010001D    155
     504                       4       1                               0D    156
     504     299                                                00010001D    157
     504                       1       1                               0D    158
     504     300                                                00010001D    159
     504                       1       1                               0D    160
     406     301                                                00000000D    161
     406                       1      15                               0D    162
     406     302                                                00000000D    163
     406                       1      15                               0D    164
     406     303                                                00000000D    165
     406                       1      15                               0D    166
     406     304                                                00000000D    167
     406                       1      15                               0D    168
     314     305                                                00000200D    169
     314                       2       0                               0D    170
     314     307                                                00000200D    171
     314                       2       0                               0D    172
     314     309                                                00000200D    173
     314                       2       0                               0D    174
124,1.,0.,0.,0.,0.,1.,1.22464679914735D-16,1.27,0.,                    1P      1
-1.22464679914735D-16,1.,-25.;                                         1P      2
124,1.,0.,0.,0.,0.,1.,1.22464679914735D-16,-1.27,0.,                   3P      3
-1.22464679914735D-16,1.,-25.;                                         3P      4
408,11,0.,0.,0.,1.,0,1,163;                                            5P      5
408,13,0.,0.,0.,1.,0,1,165;                                            7P      6
408,15,0.,0.,0.,1.,0,1,167;                                            9P      7
308,0,20HLeuchtkörper 5mm v2,1,17;                                   11P      8
308,0,8HAnode v2,1,19;                                                13P      9
308,0,9HKadode v2,1,21;                                               15P     10
186,23,1,0,0,1,161;                                                   17P     11
186,25,1,0,0,1,161;                                                   19P     12
186,27,1,0,0,1,161;                                                   21P     13
514,7,29,1,31,1,33,1,35,1,37,1,39,1,41,1;                             23P     14
514,3,43,1,45,1,47,1;                                                 25P     15
514,3,49,1,51,1,53,1;                                                 27P     16
510,123,1,1,55;                                                       29P     17
510,125,1,1,57;                                                       31P     18
510,127,1,1,59;                                                       33P     19
510,129,1,1,61;                                                       35P     20
510,131,1,1,63;                                                       37P     21
510,133,1,1,65;                                                       39P     22
510,135,1,1,67;                                                       41P     23
510,137,1,1,69;                                                       43P     24
510,139,1,1,71;                                                       45P     25
510,141,1,1,73;                                                       47P     26
510,143,1,1,75;                                                       49P     27
510,145,1,1,77;                                                       51P     28
510,147,1,1,79;                                                       53P     29
508,6,0,155,1,1,0,0,155,2,1,0,0,155,3,1,0,0,155,4,1,0,0,155,2,0,      55P     30
0,0,155,5,1,0;                                                        55P     31
508,6,0,155,4,0,0,0,155,6,1,0,0,155,7,1,0,0,155,8,1,0,0,155,6,0,      57P     32
0,0,155,3,0,0;                                                        57P     33
508,2,0,155,1,0,0,0,155,5,0,0;                                        59P     34
508,5,0,155,9,0,0,0,155,10,0,0,0,155,11,0,0,0,155,12,0,0,0,155,       61P     35
13,0,0;                                                               61P     36
508,4,0,155,11,1,0,0,155,14,1,0,0,155,13,1,0,0,155,15,1,0;            63P     37
508,5,0,155,10,1,0,0,155,7,0,0,0,155,8,0,0,0,155,9,1,0,0,155,14,      65P     38
0,0;                                                                  65P     39
508,2,0,155,12,1,0,0,155,15,0,0;                                      67P     40
508,4,0,157,1,0,0,0,157,2,1,0,0,157,3,1,0,0,157,2,0,0;                69P     41
508,1,0,157,1,1,0;                                                    71P     42
508,1,0,157,3,0,0;                                                    73P     43
508,1,0,159,1,0,0;                                                    75P     44
508,4,0,159,2,0,0,0,159,3,1,0,0,159,1,1,0,0,159,3,0,0;                77P     45
508,1,0,159,2,1,0;                                                    79P     46
126,4,2,0,0,0,0,-3.14159265358979,-3.14159265358979,                  81P     47
-3.14159265358979,-1.5707963267949,-1.5707963267949,0.,0.,0.,1.,      81P     48
0.707106781186548,1.,0.707106781186547,1.,0.0499999999999998,         81P     49
-6.12323399573674D-18,8.7,0.0499999999999998,                         81P     50
-0.0499999999999998,8.7,-3.06161699786837D-18,                        81P     51
-0.0499999999999998,8.7,-0.0499999999999998,-0.0499999999999998,      81P     52
8.7,-0.0499999999999998,0.,8.7,-3.14159265358979,0.,0.,0.,0.;         81P     53
126,2,2,0,0,0,0,-1.5707963267949,-1.5707963267949,                    83P     54
-1.5707963267949,0.,0.,0.,1.,0.707106781186548,1.,                    83P     55
-0.0499999999999999,0.,8.7,-2.5,0.,8.7,-2.5,0.,6.25,                  83P     56
-1.5707963267949,0.,0.,0.,0.;                                         83P     57
126,4,2,0,0,0,0,0.,0.,0.,1.5707963267949,1.5707963267949,             85P     58
3.14159265358979,3.14159265358979,3.14159265358979,1.,                85P     59
0.707106781186548,1.,0.707106781186548,1.,-2.5,0.,6.25,-2.5,          85P     60
-2.5,6.25,-1.53080849893419D-16,-2.5,6.25,2.5,-2.5,6.25,2.5,          85P     61
-3.06161699786838D-16,6.25,0.,3.14159265358979,0.,0.,0.;              85P     62
126,4,2,0,0,0,0,-3.14159265358979,-3.14159265358979,                  87P     63
-3.14159265358979,-1.5707963267949,-1.5707963267949,0.,0.,0.,1.,      87P     64
0.707106781186548,1.,0.707106781186548,1.,2.5,                        87P     65
3.06161699786838D-16,6.25,2.5,2.5,6.25,-1.53080849893419D-16,         87P     66
2.5,6.25,-2.5,2.5,6.25,-2.5,0.,6.25,-3.14159265358979,0.,0.,0.,       87P     67
0.;                                                                   87P     68
126,4,2,0,0,0,0,0.,0.,0.,1.5707963267949,1.5707963267949,             89P     69
3.14159265358979,3.14159265358979,3.14159265358979,1.,                89P     70
0.707106781186547,1.,0.707106781186548,1.,-0.0499999999999998,        89P     71
0.,8.7,-0.0499999999999998,0.0499999999999998,8.7,                    89P     72
-3.06161699786837D-18,0.0499999999999998,8.7,0.0499999999999998,      89P     73
0.0499999999999998,8.7,0.0499999999999998,6.12323399573674D-18,       89P     74
8.7,0.,3.14159265358979,0.,0.,0.;                                     89P     75
126,1,1,0,0,1,0,0.98,0.98,3.08,3.08,1.,1.,2.5,0.,6.25,2.5,0.,1.,      91P     76
0.98,3.08,0.,0.,0.;                                                   91P     77
126,6,2,0,0,0,0,-3.14159265358979,-3.14159265358979,                  93P     78
-3.14159265358979,-1.5707963267949,-1.5707963267949,0.,0.,            93P     79
1.5707963267949,1.5707963267949,1.5707963267949,1.,                   93P     80
0.707106781186548,1.,0.707106781186548,1.,0.707106781186548,1.,       93P     81
2.5,3.06161699786838D-16,1.,2.5,2.5,1.,-1.53080849893419D-16,         93P     82
2.5,1.,-2.5,2.5,1.,-2.5,0.,1.,-2.5,-2.5,1.,                           93P     83
-1.53080849893419D-16,-2.5,1.,-3.14159265358979,1.5707963267949,      93P     84
0.,0.,0.;                                                             93P     85
126,2,2,0,0,0,0,-4.71238898038469,-4.71238898038469,                  95P     86
-4.71238898038469,-3.14159265358979,-3.14159265358979,                95P     87
-3.14159265358979,1.,0.707106781186548,1.,4.59242549680257D-16,       95P     88
-2.5,1.,2.5,-2.5,1.,2.5,3.06161699786838D-16,1.,                      95P     89
-4.71238898038469,-3.14159265358979,0.,0.,0.;                         95P     90
126,1,1,0,0,1,0,0.0198068327193859,0.0198068327193859,                97P     91
0.166776217286377,0.166776217286377,1.,1.,0.,-2.5,1.,                 97P     92
1.46969384566991,-2.5,1.,0.0198068327193859,0.166776217286377,        97P     93
0.,0.,0.;                                                             97P     94
126,1,1,0,0,1,0,-0.127162551847605,-0.127162551847605,                99P     95
0.0198068327193859,0.0198068327193859,1.,1.,-1.46969384566991,        99P     96
-2.5,1.,0.,-2.5,1.,-0.127162551847605,0.0198068327193859,0.,0.,       99P     97
0.;                                                                   99P     98
126,1,1,0,0,1,0,0.,0.,0.1,0.1,1.,1.,-1.46969384566991,-2.5,0.,       101P     99
-1.46969384566991,-2.5,1.,0.,0.1,0.,0.,0.;                           101P    100
126,1,1,0,0,1,0,-0.166776217286377,-0.166776217286377,               103P    101
0.127162551847605,0.127162551847605,1.,1.,1.46969384566991,-2.5,     103P    102
0.,-1.46969384566991,-2.5,0.,-0.166776217286377,                     103P    103
0.127162551847605,0.,0.,0.;                                          103P    104
126,1,1,0,0,1,0,-0.1,-0.1,0.,0.,1.,1.,1.46969384566991,-2.5,1.,      105P    105
1.46969384566991,-2.5,0.,-0.1,0.,0.,0.,0.;                           105P    106
126,8,2,0,0,0,0,-4.18093074244584,-4.18093074244584,                 107P    107
-4.18093074244584,-2.87586353462037,-2.87586353462037,               107P    108
-1.5707963267949,-1.5707963267949,-0.265729118969425,                107P    109
-0.265729118969425,1.03933808885605,1.03933808885605,                107P    110
1.03933808885605,1.,0.794547942455157,1.,0.794547942455156,1.,       107P    111
0.794547942455157,1.,0.794547942455158,1.,-1.46969384566991,         107P    112
-2.5,1.,-3.38021865408814,-1.37684537882722,1.,                      107P    113
-2.79821371592664,0.761577310586392,1.,-2.21620877776515,2.9,1.,     107P    114
8.21503140158957D-16,2.9,1.,2.21620877776515,2.9,1.,                 107P    115
2.79821371592664,0.761577310586391,1.,3.38021865408814,              107P    116
-1.37684537882722,1.,1.46969384566991,-2.5,1.,-4.18093074244584,     107P    117
1.03933808885605,0.,0.,0.;                                           107P    118
126,8,2,0,0,0,0,-7.32252339603563,-7.32252339603563,                 109P    119
-7.32252339603563,-6.01745618821016,-6.01745618821016,               109P    120
-4.71238898038469,-4.71238898038469,-3.40732177255922,               109P    121
-3.40732177255922,-2.10225456473375,-2.10225456473375,               109P    122
-2.10225456473375,1.,0.794547942455156,1.,0.794547942455156,1.,      109P    123
0.794547942455156,1.,0.794547942455157,1.,1.46969384566991,-2.5,     109P    124
0.,3.38021865408814,-1.37684537882722,0.,2.79821371592664,           109P    125
0.761577310586393,0.,2.21620877776515,2.9,0.,                        109P    126
-5.32721357629099D-16,2.9,0.,-2.21620877776515,2.9,0.,               109P    127
-2.79821371592665,0.76157731058639,0.,-3.38021865408814,             109P    128
-1.37684537882722,0.,-1.46969384566991,-2.5,0.,                      109P    129
-7.32252339603563,-2.10225456473375,0.,0.,0.;                        109P    130
126,8,2,0,1,0,0,-3.14159265358979,-3.14159265358979,                 111P    131
-3.14159265358979,-1.5707963267949,-1.5707963267949,0.,0.,           111P    132
1.5707963267949,1.5707963267949,3.14159265358979,                    111P    133
3.14159265358979,3.14159265358979,1.,0.707106781186548,1.,           111P    134
0.707106781186548,1.,0.707106781186548,1.,0.707106781186548,1.,      111P    135
-0.27,-3.30654635769785D-17,25.,-0.27,-0.27,25.,                     111P    136
1.65327317884893D-17,-0.27,25.,0.27,-0.27,25.,0.27,0.,25.,0.27,      111P    137
0.27,25.,1.65327317884893D-17,0.27,25.,-0.27,0.27,25.,-0.27,         111P    138
3.30654635769785D-17,25.,-3.14159265358979,3.14159265358979,0.,      111P    139
0.,0.;                                                               111P    140
126,1,1,0,0,1,0,-92.5925925925926,-92.5925925925926,0.,0.,1.,1.,     113P    141
-0.27,0.,25.,-0.27,0.,0.,-92.5925925925926,0.,0.,0.,0.;              113P    142
126,8,2,0,1,0,0,-3.14159265358979,-3.14159265358979,                 115P    143
-3.14159265358979,-1.5707963267949,-1.5707963267949,0.,0.,           115P    144
1.5707963267949,1.5707963267949,3.14159265358979,                    115P    145
3.14159265358979,3.14159265358979,1.,0.707106781186548,1.,           115P    146
0.707106781186548,1.,0.707106781186548,1.,0.707106781186548,1.,      115P    147
-0.27,-3.30654635769785D-17,0.,-0.27,-0.27,0.,                       115P    148
1.65327317884893D-17,-0.27,0.,0.27,-0.27,0.,0.27,0.,0.,0.27,         115P    149
0.27,0.,1.65327317884893D-17,0.27,0.,-0.27,0.27,0.,-0.27,            115P    150
3.30654635769785D-17,0.,-3.14159265358979,3.14159265358979,0.,       115P    151
0.,0.;                                                               115P    152
126,8,2,0,1,0,0,-3.14159265358979,-3.14159265358979,                 117P    153
-3.14159265358979,-1.5707963267949,-1.5707963267949,0.,0.,           117P    154
1.5707963267949,1.5707963267949,3.14159265358979,                    117P    155
3.14159265358979,3.14159265358979,1.,0.707106781186548,1.,           117P    156
0.707106781186548,1.,0.707106781186548,1.,0.707106781186548,1.,      117P    157
-0.27,-3.30654635769785D-17,1.5,-0.27,-0.27,1.5,                     117P    158
1.65327317884893D-17,-0.27,1.5,0.27,-0.27,1.5,0.27,0.,1.5,0.27,      117P    159
0.27,1.5,1.65327317884893D-17,0.27,1.5,-0.27,0.27,1.5,-0.27,         117P    160
3.30654635769785D-17,1.5,-3.14159265358979,3.14159265358979,0.,      117P    161
0.,0.;                                                               117P    162
126,8,2,0,1,0,0,-3.14159265358979,-3.14159265358979,                 119P    163
-3.14159265358979,-1.5707963267949,-1.5707963267949,0.,0.,           119P    164
1.5707963267949,1.5707963267949,3.14159265358979,                    119P    165
3.14159265358979,3.14159265358979,1.,0.707106781186548,1.,           119P    166
0.707106781186548,1.,0.707106781186548,1.,0.707106781186548,1.,      119P    167
-0.27,-3.30654635769785D-17,25.,-0.27,-0.27,25.,                     119P    168
1.65327317884893D-17,-0.27,25.,0.27,-0.27,25.,0.27,0.,25.,0.27,      119P    169
0.27,25.,1.65327317884893D-17,0.27,25.,-0.27,0.27,25.,-0.27,         119P    170
3.30654635769785D-17,25.,-3.14159265358979,3.14159265358979,0.,      119P    171
0.,0.;                                                               119P    172
126,1,1,0,0,1,0,-92.5925925925926,-92.5925925925926,                 121P    173
-5.55555555555556,-5.55555555555556,1.,1.,-0.27,0.,25.,-0.27,0.,     121P    174
1.5,-92.5925925925926,-5.55555555555556,0.,0.,0.;                    121P    175
128,2,8,2,2,0,1,0,0,1,0.,0.,0.,1.5707963267949,1.5707963267949,      123P    176
1.5707963267949,-3.14159265358979,-3.14159265358979,                 123P    177
-3.14159265358979,-1.5707963267949,-1.5707963267949,0.,0.,           123P    178
1.5707963267949,1.5707963267949,3.14159265358979,                    123P    179
3.14159265358979,3.14159265358979,1.,0.707106781186548,1.,           123P    180
0.707106781186548,0.5,0.707106781186548,1.,0.707106781186548,1.,     123P    181
0.707106781186548,0.5,0.707106781186548,1.,0.707106781186548,1.,     123P    182
0.707106781186548,0.5,0.707106781186548,1.,0.707106781186548,1.,     123P    183
0.707106781186548,0.5,0.707106781186548,1.,0.707106781186548,1.,     123P    184
-0.0499999999999999,0.,8.7,-2.5,0.,8.7,-2.5,0.,6.25,                 123P    185
-0.0499999999999999,-0.0499999999999999,8.7,-2.5,-2.5,8.7,-2.5,      123P    186
-2.5,6.25,0.,-0.0499999999999999,8.7,0.,-2.5,8.7,0.,-2.5,6.25,       123P    187
0.0499999999999999,-0.0499999999999999,8.7,2.5,-2.5,8.7,2.5,         123P    188
-2.5,6.25,0.0499999999999999,0.,8.7,2.5,0.,8.7,2.5,0.,6.25,          123P    189
0.0499999999999999,0.0499999999999999,8.7,2.5,2.5,8.7,2.5,2.5,       123P    190
6.25,0.,0.0499999999999999,8.7,0.,2.5,8.7,0.,2.5,6.25,               123P    191
-0.0499999999999999,0.0499999999999999,8.7,-2.5,2.5,8.7,-2.5,        123P    192
2.5,6.25,-0.0499999999999999,0.,8.7,-2.5,0.,8.7,-2.5,0.,6.25,0.,     123P    193
1.5707963267949,-3.14159265358979,3.14159265358979;                  123P    194
128,1,8,1,2,0,1,0,0,1,0.98,0.98,3.08,3.08,-3.14159265358979,         125P    195
-3.14159265358979,-3.14159265358979,-1.5707963267949,                125P    196
-1.5707963267949,0.,0.,1.5707963267949,1.5707963267949,              125P    197
3.14159265358979,3.14159265358979,3.14159265358979,1.,1.,            125P    198
0.707106781186548,0.707106781186548,1.,1.,0.707106781186548,         125P    199
0.707106781186548,1.,1.,0.707106781186548,0.707106781186548,1.,      125P    200
1.,0.707106781186548,0.707106781186548,1.,1.,2.5,0.,1.,2.5,0.,       125P    201
6.25,2.5,-2.5,1.,2.5,-2.5,6.25,0.,-2.5,1.,0.,-2.5,6.25,-2.5,         125P    202
-2.5,1.,-2.5,-2.5,6.25,-2.5,0.,1.,-2.5,0.,6.25,-2.5,2.5,1.,-2.5,     125P    203
2.5,6.25,0.,2.5,1.,0.,2.5,6.25,2.5,2.5,1.,2.5,2.5,6.25,2.5,0.,       125P    204
1.,2.5,0.,6.25,0.98,3.08,-3.14159265358979,3.14159265358979;         125P    205
128,1,1,1,1,0,0,1,0,0,-0.00599999999999997,-0.00599999999999997,     127P    206
0.00599999999999997,0.00599999999999997,-0.00599999999999997,        127P    207
-0.00599999999999997,0.00599999999999997,0.00599999999999997,1.,     127P    208
1.,1.,1.,-0.0599999999999997,-0.0599999999999997,8.7,                127P    209
0.0599999999999997,-0.0599999999999997,8.7,-0.0599999999999997,      127P    210
0.0599999999999997,8.7,0.0599999999999997,0.0599999999999997,        127P    211
8.7,-0.00599999999999997,0.00599999999999997,                        127P    212
-0.00599999999999997,0.00599999999999997;                            127P    213
128,1,1,1,1,0,0,1,0,0,-0.108355719128219,-0.108355719128219,         129P    214
0.187583050005763,0.187583050005763,-0.0694156337861893,             129P    215
-0.0694156337861893,0.0325843662138106,0.0325843662138106,1.,1.,     129P    216
1.,1.,-1.47969384566991,-2.5,-0.01,1.47969384566991,-2.5,-0.01,      129P    217
-1.47969384566991,-2.5,1.01,1.47969384566991,-2.5,1.01,              129P    218
-0.108355719128219,0.187583050005763,-0.0694156337861893,            129P    219
0.0325843662138106;                                                  129P    220
128,1,8,1,2,0,0,0,0,0,0.,0.,0.344827586206896,0.344827586206896,     131P    221
-7.32252339603563,-7.32252339603563,-7.32252339603563,               131P    222
-6.01745618821016,-6.01745618821016,-4.71238898038469,               131P    223
-4.71238898038469,-3.40732177255922,-3.40732177255922,               131P    224
-2.10225456473375,-2.10225456473375,-2.10225456473375,1.,1.,         131P    225
0.794547942455157,0.794547942455157,1.,1.,0.794547942455157,         131P    226
0.794547942455157,1.,1.,0.794547942455157,0.794547942455157,1.,      131P    227
1.,0.794547942455157,0.794547942455157,1.,1.,1.46969384566991,       131P    228
-2.5,1.,1.46969384566991,-2.5,0.,3.38021865408814,                   131P    229
-1.37684537882722,1.,3.38021865408814,-1.37684537882722,0.,          131P    230
2.79821371592664,0.761577310586393,1.,2.79821371592664,              131P    231
0.761577310586393,0.,2.21620877776515,2.9,1.,2.21620877776515,       131P    232
2.9,0.,0.,2.9,1.,0.,2.9,0.,-2.21620877776515,2.9,1.,                 131P    233
-2.21620877776515,2.9,0.,-2.79821371592664,0.761577310586392,1.,     131P    234
-2.79821371592664,0.761577310586392,0.,-3.38021865408814,            131P    235
-1.37684537882722,1.,-3.38021865408814,-1.37684537882722,0.,         131P    236
-1.46969384566991,-2.5,1.,-1.46969384566991,-2.5,0.,0.,              131P    237
0.344827586206896,-7.32252339603563,-2.10225456473375;               131P    238
128,1,1,1,1,0,0,1,0,0,-0.339021865408814,-0.339021865408814,         133P    239
0.339021865408814,0.339021865408814,-0.291,-0.291,0.251,0.251,       133P    240
1.,1.,1.,1.,3.39021865408814,2.91,1.,-3.39021865408814,2.91,1.,      133P    241
3.39021865408814,-2.51,1.,-3.39021865408814,-2.51,1.,                133P    242
-0.339021865408814,0.339021865408814,-0.291,0.251;                   133P    243
128,1,1,1,1,0,0,1,0,0,-0.339021865408814,-0.339021865408814,         135P    244
0.339021865408814,0.339021865408814,-0.251,-0.251,0.291,0.291,       135P    245
1.,1.,1.,1.,3.39021865408814,-2.51,0.,-3.39021865408814,-2.51,       135P    246
0.,3.39021865408814,2.91,0.,-3.39021865408814,2.91,0.,               135P    247
-0.339021865408814,0.339021865408814,-0.251,0.291;                   135P    248
128,1,8,1,2,0,1,0,0,1,0.,0.,92.5925925925926,92.5925925925926,       137P    249
-3.14159265358979,-3.14159265358979,-3.14159265358979,               137P    250
-1.5707963267949,-1.5707963267949,0.,0.,1.5707963267949,             137P    251
1.5707963267949,3.14159265358979,3.14159265358979,                   137P    252
3.14159265358979,1.,1.,0.707106781186548,0.707106781186548,1.,       137P    253
1.,0.707106781186548,0.707106781186548,1.,1.,0.707106781186548,      137P    254
0.707106781186548,1.,1.,0.707106781186548,0.707106781186548,1.,      137P    255
1.,-0.27,0.,25.,-0.27,0.,0.,-0.27,-0.27,25.,-0.27,-0.27,0.,0.,       137P    256
-0.27,25.,0.,-0.27,0.,0.27,-0.27,25.,0.27,-0.27,0.,0.27,0.,25.,      137P    257
0.27,0.,0.,0.27,0.27,25.,0.27,0.27,0.,0.,0.27,25.,0.,0.27,0.,        137P    258
-0.27,0.27,25.,-0.27,0.27,0.,-0.27,0.,25.,-0.27,0.,0.,0.,            137P    259
92.5925925925926,-3.14159265358979,3.14159265358979;                 137P    260
128,1,1,1,1,0,0,1,0,0,-0.028,-0.028,0.028,0.028,-0.028,-0.028,       139P    261
0.028,0.028,1.,1.,1.,1.,-0.28,-0.28,25.,0.28,-0.28,25.,-0.28,        139P    262
0.28,25.,0.28,0.28,25.,-0.028,0.028,-0.028,0.028;                    139P    263
128,1,1,1,1,0,0,1,0,0,-0.028,-0.028,0.028,0.028,-0.028,-0.028,       141P    264
0.028,0.028,1.,1.,1.,1.,0.28,-0.28,0.,-0.28,-0.28,0.,0.28,0.28,      141P    265
0.,-0.28,0.28,0.,-0.028,0.028,-0.028,0.028;                          141P    266
128,1,1,1,1,0,0,1,0,0,-0.028,-0.028,0.028,0.028,-0.028,-0.028,       143P    267
0.028,0.028,1.,1.,1.,1.,0.28,-0.28,1.5,-0.28,-0.28,1.5,0.28,         143P    268
0.28,1.5,-0.28,0.28,1.5,-0.028,0.028,-0.028,0.028;                   143P    269
128,1,8,1,2,0,1,0,0,1,5.55555555555556,5.55555555555556,             145P    270
92.5925925925926,92.5925925925926,-3.14159265358979,                 145P    271
-3.14159265358979,-3.14159265358979,-1.5707963267949,                145P    272
-1.5707963267949,0.,0.,1.5707963267949,1.5707963267949,              145P    273
3.14159265358979,3.14159265358979,3.14159265358979,1.,1.,            145P    274
0.707106781186548,0.707106781186548,1.,1.,0.707106781186548,         145P    275
0.707106781186548,1.,1.,0.707106781186548,0.707106781186548,1.,      145P    276
1.,0.707106781186548,0.707106781186548,1.,1.,-0.27,0.,25.,-0.27,     145P    277
0.,1.5,-0.27,-0.27,25.,-0.27,-0.27,1.5,0.,-0.27,25.,0.,-0.27,        145P    278
1.5,0.27,-0.27,25.,0.27,-0.27,1.5,0.27,0.,25.,0.27,0.,1.5,0.27,      145P    279
0.27,25.,0.27,0.27,1.5,0.,0.27,25.,0.,0.27,1.5,-0.27,0.27,25.,       145P    280
-0.27,0.27,1.5,-0.27,0.,25.,-0.27,0.,1.5,5.55555555555556,           145P    281
92.5925925925926,-3.14159265358979,3.14159265358979;                 145P    282
128,1,1,1,1,0,0,1,0,0,-0.028,-0.028,0.028,0.028,-0.028,-0.028,       147P    283
0.028,0.028,1.,1.,1.,1.,-0.28,-0.28,25.,0.28,-0.28,25.,-0.28,        147P    284
0.28,25.,0.28,0.28,25.,-0.028,0.028,-0.028,0.028;                    147P    285
502,10,0.0499999999999998,-6.12323399573674D-18,8.7,                 149P    286
-0.0499999999999999,0.,8.7,-2.5,0.,6.25,2.5,                         149P    287
3.06161699786838D-16,6.25,2.5,0.,1.,0.,-2.5,1.,1.46969384566991,     149P    288
-2.5,1.,-1.46969384566991,-2.5,1.,-1.46969384566991,-2.5,0.,         149P    289
1.46969384566991,-2.5,0.;                                            149P    290
502,2,-0.27,-3.30654635769785D-17,25.,-0.27,                         151P    291
-3.30654635769785D-17,0.;                                            151P    292
502,2,-0.27,-3.30654635769785D-17,1.5,-0.27,                         153P    293
-3.30654635769785D-17,25.;                                           153P    294
504,15,81,149,1,149,2,83,149,2,149,3,85,149,3,149,4,87,149,4,        155P    295
149,3,89,149,2,149,1,91,149,4,149,5,93,149,5,149,6,95,149,6,149,     155P    296
5,97,149,6,149,7,99,149,8,149,6,101,149,9,149,8,103,149,10,149,      155P    297
9,105,149,7,149,10,107,149,8,149,7,109,149,10,149,9;                 155P    298
504,3,111,151,1,151,1,113,151,1,151,2,115,151,2,151,2;               157P    299
504,3,117,153,1,153,1,119,153,2,153,2,121,153,2,153,1;               159P    300
406,1,5HBody1;                                                       161P    301
406,1,22HLeuchtkörper 5mm v2:1;                                     163P    302
406,1,10HAnode v2:1;                                                 165P    303
406,1,11HKadode v2:1;                                                167P    304
314,26.6666666666667,58.8235294117647,28.2352941176471,45HKunsts     169P    305
toff - durchscheinend glänzend (Grün);                             169P    306
314,79.6078431372549,79.6078431372549,79.6078431372549,21HEdelst     171P    307
ahl - satiniert;                                                     171P    308
314,62.7450980392157,62.7450980392157,62.7450980392157,17HStahl      173P    309
- satiniert;                                                         173P    310
S      1G      3D    174P    310                                        T      1
